<?xml version="1.0" standalone="no"?>
<!DOCTYPE svg PUBLIC "-//W3C//DTD SVG 20010904//EN"
 "http://www.w3.org/TR/2001/REC-SVG-20010904/DTD/svg10.dtd">
<svg version="1.0" xmlns="http://www.w3.org/2000/svg"
 width="891.000000pt" height="223.000000pt" viewBox="0 0 891.000000 223.000000"
 preserveAspectRatio="xMidYMid meet">

<g transform="translate(0.000000,223.000000) scale(0.100000,-0.100000)"
fill="#000000" stroke="none">
<path d="M0 1115 l0 -1115 4455 0 4455 0 0 1115 0 1115 -4455 0 -4455 0 0
-1115z m1229 540 c72 -17 172 -63 213 -97 l28 -23 -56 -92 c-30 -51 -59 -93
-63 -93 -4 0 -18 11 -30 24 -70 74 -252 96 -362 45 -70 -33 -130 -91 -165
-161 -39 -76 -45 -190 -13 -273 28 -75 102 -155 178 -192 49 -24 68 -28 146
-28 77 1 98 5 146 28 31 15 64 36 74 47 10 11 21 20 26 20 4 0 32 -41 63 -91
l56 -91 -23 -19 c-12 -10 -48 -32 -79 -49 -163 -88 -344 -91 -514 -8 -95 45
-210 159 -252 249 -112 235 -65 492 120 665 77 72 143 108 240 134 89 23 182
25 267 5z m1030 -10 c121 -16 248 -117 310 -245 l36 -75 3 -383 3 -383 -108 3
-108 3 -3 108 -3 107 -214 0 -215 0 0 -104 c0 -74 -4 -105 -12 -109 -7 -2 -57
-5 -110 -6 l-98 -2 0 358 c0 387 3 416 55 512 62 113 193 204 317 220 35 4 72
7 83 5 11 -1 40 -5 64 -9z m1195 4 c88 -12 194 -68 254 -134 165 -181 157
-442 -18 -609 -33 -32 -60 -61 -60 -65 0 -4 25 -65 55 -135 30 -70 53 -132 50
-137 -10 -14 -212 -11 -222 4 -4 6 -26 55 -49 107 l-41 95 -49 5 c-27 3 -84 4
-126 2 l-76 -3 5 -84 c9 -137 13 -132 -114 -131 l-108 1 -3 525 c-1 289 0 535
3 548 l6 23 217 -2 c119 -1 244 -5 276 -10z m1166 1 c93 -13 197 -68 258 -135
166 -182 158 -441 -18 -609 -70 -67 -70 -48 1 -214 27 -63 47 -117 44 -122 -2
-4 -49 -8 -104 -9 -75 -2 -102 2 -113 13 -9 8 -34 59 -57 113 l-42 98 -117 -3
c-64 -2 -117 -4 -118 -5 -1 -1 -4 -47 -5 -102 -2 -55 -8 -103 -14 -107 -5 -4
-54 -8 -107 -8 l-98 0 0 543 c0 299 3 546 6 550 10 9 414 8 484 -3z m1422 -3
c2 -6 5 -56 7 -109 l3 -98 -265 0 -266 0 -3 -106 c-2 -58 -1 -108 1 -110 2 -2
82 -4 178 -4 l173 0 0 -110 0 -110 -177 -2 c-177 -3 -177 -3 -176 -25 0 -13 1
-61 2 -108 l1 -85 264 0 264 0 -1 -107 -2 -108 -372 -3 -373 -2 0 543 c0 299
3 546 6 550 4 3 170 6 369 6 279 1 364 -2 367 -12z m562 -25 c13 -20 52 -86
88 -147 35 -60 120 -206 189 -323 l124 -213 5 358 5 358 74 3 c41 2 89 1 107
-3 l34 -6 -1 -539 c0 -472 -2 -539 -15 -544 -20 -7 -182 -8 -209 0 -11 3 -32
26 -46 52 -15 26 -108 186 -208 356 l-181 309 -2 -359 -3 -359 -105 0 -105 0
-3 535 c-1 294 0 540 2 547 3 8 40 12 116 12 l111 -1 23 -36z m1764 -74 l3
-108 -166 0 -165 0 0 -440 0 -441 -107 3 -108 3 -3 438 -2 437 -163 0 -163 0
-2 104 c-1 91 1 105 16 109 9 3 206 4 437 3 l420 -1 3 -107z"/>
<path d="M2119 1426 c-64 -17 -106 -50 -134 -107 -23 -44 -25 -60 -25 -184 l0
-135 215 0 215 0 0 135 c0 117 -3 141 -21 181 -43 90 -149 137 -250 110z"/>
<path d="M3178 1230 c-2 -116 -1 -215 0 -220 2 -6 56 -10 132 -10 120 0 131 2
181 28 133 69 158 236 50 343 -56 56 -103 69 -256 69 l-104 0 -3 -210z"/>
<path d="M4350 1219 l0 -221 138 4 c129 3 140 5 184 31 124 72 143 235 39 338
-56 56 -103 69 -256 69 l-105 0 0 -221z"/>
</g>
</svg>
